<?xml version="1.0" encoding="utf-8"?>
<!-- Generator: Adobe Illustrator 16.0.0, SVG Export Plug-In . SVG Version: 6.00 Build 0)  -->
<!DOCTYPE svg PUBLIC "-//W3C//DTD SVG 1.1//EN" "http://www.w3.org/Graphics/SVG/1.1/DTD/svg11.dtd">
<svg version="1.1" id="Capa_1" xmlns="http://www.w3.org/2000/svg" xmlns:xlink="http://www.w3.org/1999/xlink" x="0px" y="0px"
	 width="133.349px" height="40px" viewBox="0 0 133.349 40" enable-background="new 0 0 133.349 40" xml:space="preserve">
<g>
	<path fill="#1E6899" d="M4.106,37.565c-0.435,0-0.878-0.098-1.295-0.306c-1.434-0.717-2.015-2.459-1.298-3.894L15.802,4.792
		c0.488-0.973,1.477-1.591,2.564-1.604c1.088,0.027,2.09,0.587,2.597,1.547l15.08,28.574c0.748,1.417,0.206,3.172-1.211,3.92
		c-1.419,0.749-3.173,0.204-3.92-1.211L18.467,12.438L6.704,35.961C6.195,36.979,5.171,37.565,4.106,37.565z"/>
</g>
<g>
	<path fill="#1E6899" d="M46.447,37.116c-1.043,0-2.049-0.562-2.568-1.548l-5.894-11.174c-0.748-1.417-0.205-3.172,1.213-3.919
		c1.417-0.749,3.172-0.205,3.918,1.213l5.894,11.174c0.748,1.417,0.205,3.172-1.213,3.919
		C47.366,37.008,46.903,37.116,46.447,37.116z"/>
</g>
<g>
	<path fill="#FFFFFF" d="M33.252,4.517c3.351-0.136,4.34-0.157,7.174-0.16c5.385,0,9.75,4.136,9.75,9.237
		c0,5.097-4.365,9.234-9.75,9.234"/>
	<path fill="#1E6899" d="M40.427,25.729c-1.602,0-2.901-1.299-2.901-2.901c0-1.603,1.299-2.901,2.901-2.901
		c3.776,0,6.849-2.841,6.849-6.333c0-3.494-3.073-6.336-6.849-6.336c-2.787,0.003-3.76,0.024-7.057,0.157
		c-1.588,0.019-2.953-1.18-3.016-2.781c-0.065-1.601,1.18-2.951,2.781-3.017c3.405-0.139,4.409-0.16,7.29-0.163
		c6.979,0,12.654,5.446,12.654,12.139C53.079,20.285,47.403,25.729,40.427,25.729z"/>
</g>
<g>
	<path fill="#323232" d="M61.675,13.325h3.979c3.08,0,4.865,1.641,4.865,4.168c0,3.585-2.526,5.997-6.332,5.997h-4.545
		L61.675,13.325z M64.231,22.226c2.992,0,4.821-1.961,4.821-4.647c0-1.829-1.176-2.991-3.543-2.991h-2.644l-1.524,7.638H64.231z"/>
	<path fill="#323232" d="M72.787,20.077v0.088c0,1.408,0.783,2.192,2.439,2.192c0.959,0,1.829-0.349,2.381-0.886l0.595,1.002
		c-0.755,0.712-1.917,1.105-3.093,1.105c-2.279,0-3.688-1.308-3.688-3.341c0-2.614,1.829-4.517,4.341-4.517
		c2.077,0,3.442,1.25,3.442,3.327c0,0.363-0.044,0.711-0.102,1.03H72.787z M72.933,19.061h4.966
		c0.072-1.408-0.827-2.179-2.193-2.179C74.312,16.882,73.281,17.725,72.933,19.061z"/>
	<path fill="#323232" d="M79.561,22.69l0.625-1.104c0.595,0.48,1.626,0.785,2.672,0.785c1.336,0,2.019-0.421,2.019-1.134
		c0-1.495-4.27-0.42-4.27-3.021c0-1.524,1.38-2.498,3.485-2.498c1.017,0,2.063,0.262,2.686,0.697l-0.551,1.104
		c-0.625-0.435-1.482-0.609-2.265-0.609c-1.292,0-1.961,0.479-1.961,1.146c0,1.554,4.254,0.465,4.254,3.021
		c0,1.598-1.438,2.5-3.529,2.5C81.419,23.578,80.185,23.199,79.561,22.69z"/>
	<path fill="#323232" d="M87.554,20.251c0-2.598,1.889-4.531,4.531-4.531c1.482,0,2.571,0.553,3.167,1.67l-1.176,0.653
		c-0.407-0.739-1.104-1.104-2.091-1.104c-1.743,0-3.021,1.35-3.021,3.253c0,1.35,0.827,2.164,2.308,2.164
		c0.916,0,1.758-0.363,2.295-1.088l1.017,0.726c-0.712,0.987-1.99,1.584-3.369,1.584C88.978,23.578,87.554,22.256,87.554,20.251z"/>
	<path fill="#323232" d="M104.552,15.794l-1.526,7.696h-1.336l0.19-0.988c-0.713,0.727-1.686,1.076-2.76,1.076
		c-1.685,0-2.76-0.945-2.76-2.586c0-0.276,0.03-0.566,0.088-0.885l0.857-4.313h1.394l-0.857,4.327
		c-0.044,0.232-0.072,0.451-0.072,0.653c0,0.987,0.581,1.554,1.757,1.554c1.452,0,2.483-0.813,2.818-2.454l0.813-4.08H104.552z"/>
	<path fill="#323232" d="M114.459,19.031c0,2.644-1.858,4.546-4.356,4.546c-1.366,0-2.337-0.524-2.816-1.482l-0.292,1.394h-1.32
		l2.149-10.776h1.394l-0.799,3.965c0.683-0.61,1.568-0.959,2.643-0.959C113.021,15.72,114.459,16.956,114.459,19.031z
		 M113.051,19.104c0-1.364-0.829-2.164-2.295-2.164c-1.743,0-3.005,1.35-3.005,3.253c0,1.35,0.827,2.164,2.293,2.164
		C111.773,22.356,113.051,21.006,113.051,19.104z"/>
	<path fill="#323232" d="M121.261,15.72l-0.262,1.352c-0.13-0.016-0.217-0.016-0.363-0.016c-1.54,0-2.556,0.813-2.904,2.585
		l-0.77,3.848h-1.394l1.524-7.696h1.336l-0.218,1.146C118.908,16.069,119.881,15.72,121.261,15.72z"/>
	<path fill="#323232" d="M122.94,15.794h1.394l-1.524,7.696h-1.394L122.94,15.794z M124.929,12.788h1.815l-2.642,1.887h-1.364
		L124.929,12.788z"/>
	<path fill="#323232" d="M66.715,32.554h-5.432l-1.611,2.542h-1.569l6.651-10.165h1.438l2.57,10.165h-1.438L66.715,32.554z
		 M66.424,31.392l-1.206-5.009l-3.195,5.009H66.424z"/>
	<path fill="#323232" d="M75.766,27.326l-0.262,1.352c-0.13-0.016-0.217-0.016-0.363-0.016c-1.54,0-2.556,0.813-2.904,2.585
		l-0.77,3.848h-1.394l1.524-7.696h1.336l-0.218,1.146C73.413,27.675,74.386,27.326,75.766,27.326z"/>
	<path fill="#323232" d="M84.734,27.4l-1.322,6.65C82.861,36.838,81.365,38,78.81,38c-1.468,0-2.686-0.393-3.515-1.089l0.77-1.074
		c0.596,0.551,1.642,0.93,2.848,0.93c1.815,0,2.729-0.829,3.063-2.498l0.116-0.552c-0.697,0.668-1.641,1.06-2.788,1.06
		c-2.033,0-3.427-1.19-3.427-3.137c0-2.439,1.815-4.313,4.386-4.313c1.262,0,2.367,0.465,2.875,1.482l0.276-1.408H84.734z
		 M82.599,30.537c0-1.235-0.843-1.991-2.293-1.991c-1.758,0-3.021,1.264-3.021,3.006c0,1.248,0.855,2.005,2.293,2.005
		C81.335,33.557,82.599,32.293,82.599,30.537z"/>
	<path fill="#323232" d="M87.208,31.683v0.088c0,1.408,0.785,2.192,2.439,2.192c0.958,0,1.831-0.349,2.382-0.886l0.595,1.002
		c-0.755,0.712-1.917,1.105-3.093,1.105c-2.279,0-3.689-1.308-3.689-3.341c0-2.614,1.831-4.517,4.342-4.517
		c2.077,0,3.441,1.25,3.441,3.327c0,0.363-0.042,0.711-0.101,1.03H87.208z M87.353,30.667h4.967
		c0.072-1.408-0.828-2.179-2.193-2.179C88.732,28.488,87.701,29.331,87.353,30.667z"/>
	<path fill="#323232" d="M102.969,29.882c0,0.276-0.03,0.581-0.088,0.901l-0.857,4.313h-1.394l0.857-4.313
		c0.044-0.232,0.072-0.451,0.072-0.639c0-1.001-0.581-1.568-1.785-1.568c-1.496,0-2.513,0.799-2.846,2.454l-0.813,4.066h-1.394
		l1.524-7.696h1.336l-0.188,0.986c0.711-0.725,1.685-1.06,2.788-1.06C101.924,27.326,102.969,28.241,102.969,29.882z"/>
	<path fill="#323232" d="M106.663,32.642c-0.028,0.144-0.042,0.274-0.042,0.406c0,0.595,0.319,0.958,1.016,0.958
		c0.378,0,0.783-0.13,1.104-0.363l0.291,1.06c-0.523,0.364-1.176,0.48-1.787,0.48c-1.204,0-2.033-0.727-2.033-1.933
		c0-0.174,0.016-0.377,0.058-0.581l0.828-4.125h-1.306l0.218-1.146h1.321l0.334-1.686h1.394l-0.334,1.686h2.207l-0.232,1.146h-2.207
		L106.663,32.642z"/>
	<path fill="#323232" d="M112.131,27.4h1.394l-1.524,7.696h-1.394L112.131,27.4z M112.364,25.077c0-0.539,0.407-0.974,1.001-0.974
		c0.509,0,0.886,0.377,0.886,0.813c0,0.595-0.421,1.001-1.016,1.001C112.727,25.918,112.364,25.541,112.364,25.077z"/>
	<path fill="#323232" d="M122.903,29.882c0,0.276-0.03,0.581-0.088,0.901l-0.857,4.313h-1.394l0.857-4.313
		c0.044-0.232,0.072-0.451,0.072-0.639c0-1.001-0.581-1.568-1.785-1.568c-1.496,0-2.513,0.799-2.846,2.454l-0.813,4.066h-1.394
		l1.524-7.696h1.336l-0.188,0.986c0.711-0.725,1.685-1.06,2.788-1.06C121.857,27.326,122.903,28.241,122.903,29.882z"/>
	<path fill="#323232" d="M133.349,27.4l-1.524,7.696h-1.337l0.19-0.943c-0.683,0.653-1.612,1.031-2.716,1.031
		c-1.961,0-3.399-1.25-3.399-3.327c0-2.642,1.859-4.531,4.358-4.531c1.32,0,2.279,0.479,2.772,1.38l0.262-1.306H133.349z
		 M131.271,30.709c0-1.364-0.827-2.164-2.295-2.164c-1.727,0-3.005,1.35-3.005,3.253c0,1.35,0.827,2.164,2.293,2.164
		C130.008,33.962,131.271,32.612,131.271,30.709z"/>
</g>
<path fill="#EECA2B" d="M23.232,30.224c0,2.451-1.989,4.44-4.438,4.44c-2.451,0-4.44-1.989-4.44-4.44
	c0-2.451,1.989-4.438,4.44-4.438C21.243,25.786,23.232,27.772,23.232,30.224z"/>
</svg>
